<?xml version="1.0" encoding="UTF-8"?>
<svg width="2560px" height="238px" viewBox="0 0 2560 238" version="1.1" xmlns="http://www.w3.org/2000/svg" xmlns:xlink="http://www.w3.org/1999/xlink">
    <!-- Generator: sketchtool 58 (101010) - https://sketch.com -->
    <title>91E361D6-7249-4239-93EB-CD7D655B92A1@2x</title>
    <desc>Created with sketchtool.</desc>
    <g id="Responsiivisuus" stroke="none" stroke-width="1" fill="none" fill-rule="evenodd">
        <g id="Julkinen-puoli_lukiokoulutus-2560" transform="translate(0.000000, -70.000000)" fill-rule="nonzero">
            <g id="Julkinen-puoli/Väriheader/Lukio" transform="translate(0.000000, 70.000000)">
                <g id="Group" transform="translate(0.000000, -0.000000)">
                    <path d="M2560,-8.52651283e-14 L2560,79 L2559.9995,79.0001722 L2560,79 L2560,238 C2503.1898,233.761114 2466.44205,186.807821 2457.71641,139.436983 C2457.55651,138.568862 2457.40136,137.71856 2457.2508,136.885424 C2398.83766,172.088069 2333.6482,210.631189 2288.23913,221.140922 C2237.51239,232.881409 2212.51458,237.899314 2106.24527,237.998498 L2103,238 L2095,238 C2095.02052,237.996148 2095.04106,237.992284 2095.06161,237.988407 L0,237.988394 L0,-8.52651283e-14 L2560,-8.52651283e-14 Z" id="Combined-Shape" fill="#0143DA" transform="translate(1280.000000, 119.000000) scale(1, -1) translate(-1280.000000, -119.000000) "></path>
                    <g id="aallto-varjot-copy-4" transform="translate(2095.000000, 0.000000)" fill="#FFFFFF">
                        <path d="M335.755269,216.662396 L335.664392,216.705872 C335.648548,216.712887 335.632717,216.719897 335.6169,216.7269 L335,217 L335,217 L335.755269,216.662396 Z M463.134941,158.18936 L465,159 L335.755269,216.662396 L335.826284,216.628682 C342.635653,213.288142 347.536817,203.792129 350.529778,188.140641 L350.648478,187.511298 C359.279218,141.115259 354.185812,145.743199 362.250621,101.115568 C401.692091,124.880648 438.044426,147.125079 463.134941,158.18936 Z" id="Combined-Shape" fill-opacity="0.251584353"></path>
                        <path d="M8,0 C117.012199,0 142,5 193.239133,16.8590779 C238.647937,27.3687512 303.836918,65.9114901 362.251455,101.113064 C354.185812,145.743199 359.279218,141.115259 350.648478,187.511298 C347.994073,201.780515 343.78638,211.039145 338.025399,215.287188 C336.951887,215.87998 335.9435,216.451199 335,217 C332.287105,218.333333 328.107844,219 322.462219,219 C313.993782,219 309.509759,216.608466 304.132178,213.533084 C252.358273,183.924127 171.716974,102.27472 97.1259297,48.9711273 C58.7647046,21.5577676 21.3478046,4.00697067 3.63797881e-12,0 L8,0 L8,0 Z" id="Combined-Shape" opacity="0.478724888"></path>
                        <path d="M465,0 L465,159 L463.134941,158.18936 C438.044467,147.125097 401.692211,124.880722 362.251651,101.113182 L362.458868,99.9683314 L362.458868,99.9683314 L362.716412,98.563017 C371.442046,51.1921789 408.189797,4.23888618 465,0 L465,0 Z" id="Combined-Shape" opacity="0.486955915"></path>
                    </g>
                </g>
            </g>
        </g>
    </g>
</svg>