<?xml version="1.0" encoding="UTF-8"?>
<svg width="768px" height="238px" viewBox="0 0 768 238" version="1.1" xmlns="http://www.w3.org/2000/svg" xmlns:xlink="http://www.w3.org/1999/xlink">
    <!-- Generator: Sketch 59 (86127) - https://sketch.com -->
    <title>Header_tablet@2x</title>
    <desc>Created with Sketch.</desc>
    <g id="ASSETIT" stroke="none" stroke-width="1" fill="none" fill-rule="evenodd">
        <g id="ASSETIT---VALMIUSASTE,-OPS-KORTIT,-HEADER" transform="translate(-71.000000, -365.000000)" fill-rule="nonzero">
            <g id="Header_tablet" transform="translate(71.000000, 365.000000)">
                <path d="M767.996047,238 C727.790754,235.000087 701.783911,201.770653 695.60867,168.245718 C695.495447,167.631036 695.385596,167.028978 695.278994,166.43908 C653.938777,191.353694 607.803808,218.630803 575.667476,226.068619 C539.404899,234.461437 521.720719,238 444.57142,238 L444.57142,238 L438.90972,238 C438.923604,237.997394 438.937499,237.99478 438.951403,237.992157 L1.13686838e-13,237.991786 L1.13686838e-13,-2.27373675e-13 L767.996047,-2.27373675e-13 L767.996047,238 Z" id="Combined-Shape" fill="#0143DA" transform="translate(383.998024, 119.000000) scale(1, -1) translate(-383.998024, -119.000000) "></path>
                <path d="M676.516081,153.339748 L676.490988,153.353066 L676.490988,153.353066 L676.430006,153.380343 L676.430006,153.380343 L675.993418,153.57362 L675.993418,153.57362 L676.516081,153.339748 Z M766.676122,111.952593 L767.996047,112.526293 L676.516081,153.339748 L676.736265,153.231473 C681.455679,150.807744 684.863841,144.154186 686.960751,133.270802 L687.068042,132.704096 C693.176072,99.8693247 689.57152,103.144231 695.278874,71.5615833 C723.192073,88.3794939 748.91919,104.122236 766.676122,111.952593 Z" id="Combined-Shape" fill-opacity="0.251584353" fill="#FFFFFF"></path>
                <path d="M444.57142,2.08899564e-12 C521.720719,2.08899564e-12 539.404899,3.53856266 575.667476,11.9313808 C607.803808,19.3691972 653.938777,46.6463065 695.27943,71.5588712 C689.57147,103.144277 693.176114,99.869095 687.068042,132.704096 C685.189863,142.800572 682.212844,149.352417 678.136985,152.359631 C677.376146,152.780201 676.661778,153.184858 675.993418,153.57362 C674.073468,154.517236 671.115753,154.989045 667.120274,154.989045 C661.127054,154.989045 657.953655,153.296526 654.147874,151.120039 C617.506832,130.16541 560.435974,72.3811014 507.646957,34.6574806 C480.498237,15.2567023 454.017828,2.83578336 438.90972,2.08899564e-12 L444.57142,2.08899564e-12 L444.57142,2.08899564e-12 Z" id="Combined-Shape" fill="#FFFFFF" opacity="0.478724888"></path>
                <path d="M767.996047,1.9468871e-12 L767.996047,112.526293 L766.676122,111.952593 C748.919231,104.122254 723.192194,88.3795676 695.279528,71.5589303 L695.426403,70.748841 L695.426403,70.748841 L695.60867,69.7542824 C701.783911,36.2293466 727.790754,2.99991287 767.996047,1.9468871e-12 L767.996047,1.9468871e-12 Z" id="Combined-Shape" fill="#FFFFFF" opacity="0.486955915"></path>
            </g>
        </g>
    </g>
</svg>