<?xml version="1.0" encoding="UTF-8"?>
<svg width="376px" height="238px" viewBox="0 0 376 238" version="1.1" xmlns="http://www.w3.org/2000/svg" xmlns:xlink="http://www.w3.org/1999/xlink">
    <!-- Generator: Sketch 59 (86127) - https://sketch.com -->
    <title>Header_mobile@2x</title>
    <desc>Created with Sketch.</desc>
    <g id="ASSETIT" stroke="none" stroke-width="1" fill="none" fill-rule="evenodd">
        <g id="ASSETIT---VALMIUSASTE,-OPS-KORTIT,-HEADER" transform="translate(-72.000000, -698.000000)" fill-rule="nonzero">
            <g id="Header_mobile" transform="translate(71.000000, 698.000000)">
                <g id="Group" transform="translate(0.950000, 0.000000)">
                    <path d="M375.054253,238 C346.303348,235.854755 327.705789,212.092304 323.289859,188.118538 C323.208847,187.678728 323.130249,187.247956 323.053977,186.825888 C293.491925,204.642925 260.50049,224.149013 237.51961,229.46784 C211.588151,235.469565 198.94215,238 143.772492,238 L139.723796,238 C139.732373,237.99839 139.740955,237.996776 139.749542,237.995158 L0.05,237.994126 L0.05,-4.26325641e-14 L375.054253,-4.26325641e-14 L375.054253,238 Z" id="Combined-Shape" fill="#0143DA" transform="translate(187.552127, 119.000000) scale(1, -1) translate(-187.552127, -119.000000) "></path>
                    <g id="aallto-varjot-copy-4" transform="translate(139.723796, 0.000000)" fill="#FFFFFF">
                        <path d="M169.863146,109.675596 L169.807908,109.701902 L169.807908,109.701902 L169.539146,109.82088 L169.539146,109.82088 L169.863146,109.675596 Z M234.386575,80.0575793 L235.330457,80.4678337 L169.863146,109.675596 L169.962619,109.630357 C173.382144,107.949153 175.85026,103.198901 177.366967,95.3795986 L177.458638,94.8970311 C181.826522,71.4167111 179.248861,73.7587163 183.330273,51.1735989 C203.291323,63.200581 221.688652,74.4581173 234.386575,80.0575793 Z" id="Combined-Shape" fill-opacity="0.251584353"></path>
                        <path d="M97.7958139,8.53216025 C120.776668,13.8509806 153.768056,33.3570314 183.330942,51.1721209 C179.2489,73.7586809 181.826489,71.4168888 177.458638,94.8970311 C176.114486,102.122751 173.98331,106.809689 171.065107,108.957845 C170.52329,109.256138 170.014917,109.544141 169.539146,109.82088 C168.166185,110.495663 166.051116,110.833054 163.193939,110.833054 C158.908172,110.833054 156.638867,109.62273 153.917343,108.066319 C127.715242,93.0816105 86.9037289,51.7599068 49.1541708,24.7836511 C29.7400533,10.910106 10.8038465,2.02787578 3.63797881e-12,0 L4.04869603,0 C59.2183531,0 71.8643546,2.53043502 97.7958139,8.53216025 Z" id="Combined-Shape" opacity="0.478724888"></path>
                        <path d="M235.330457,0 L235.330457,80.4678337 L234.386575,80.0575793 C221.688673,74.4581265 203.291383,63.200618 183.331138,51.1722394 L183.42898,50.6296653 L183.42898,50.6296653 L183.566062,49.881462 C187.981992,25.9076965 206.579551,2.14524521 235.330457,0 L235.330457,0 Z" id="Combined-Shape" opacity="0.486955915"></path>
                    </g>
                </g>
            </g>
        </g>
    </g>
</svg>