<svg width="40" height="33" viewBox="0 0 40 33" fill="none" xmlns="http://www.w3.org/2000/svg">
<g clip-path="url(#clip0_4277_16832)">
<path d="M36.5804 1.29996C34.5356 0.655222 32.2883 0.378906 30.133 0.378906C26.5409 0.378906 22.6725 1.11575 20.0014 3.14206C17.3304 1.11575 13.462 0.378906 9.86986 0.378906C6.27775 0.378906 2.40933 1.11575 -0.261719 3.14206V30.1289C-0.261719 30.5894 0.198808 31.05 0.659334 31.05C0.843544 31.05 0.93565 30.9579 1.11986 30.9579C3.6067 29.7605 7.19881 28.9315 9.86986 28.9315C13.462 28.9315 17.3304 29.6684 20.0014 31.6947C22.4883 30.1289 27.0014 28.9315 30.133 28.9315C33.1725 28.9315 36.3041 29.4842 38.883 30.8657C39.0672 30.9579 39.1593 30.9579 39.3435 30.9579C39.8041 30.9579 40.2646 30.4973 40.2646 30.0368V3.14206C39.1593 2.31312 37.962 1.76049 36.5804 1.29996ZM36.5804 26.1684C34.5541 25.5236 32.3435 25.2473 30.133 25.2473C27.0014 25.2473 22.4883 26.4447 20.0014 28.0105V6.82628C22.4883 5.26049 27.0014 4.06312 30.133 4.06312C32.3435 4.06312 34.5541 4.33943 36.5804 4.98417V26.1684Z" fill="#0041DC"/>
<path d="M30.1332 11.4311C31.7543 11.4311 33.3201 11.5969 34.7385 11.9101V9.11007C33.2832 8.83376 31.7174 8.66797 30.1332 8.66797C27.0016 8.66797 24.1648 9.20218 21.8438 10.1969V13.2548C23.9253 12.0759 26.8174 11.4311 30.1332 11.4311Z" fill="#0041DC"/>
<path d="M21.8438 15.0973V18.1552C23.9253 16.9763 26.8174 16.3315 30.1332 16.3315C31.7543 16.3315 33.3201 16.4973 34.7385 16.8105V14.0105C33.2832 13.7341 31.7174 13.5684 30.1332 13.5684C27.0016 13.5684 24.1648 14.121 21.8438 15.0973Z" fill="#0041DC"/>
<path d="M30.1332 18.4863C27.0016 18.4863 24.1648 19.0205 21.8438 20.0153V23.0732C23.9253 21.8942 26.8174 21.2495 30.1332 21.2495C31.7543 21.2495 33.3201 21.4153 34.7385 21.7284V18.9284C33.2832 18.6337 31.7174 18.4863 30.1332 18.4863Z" fill="#0041DC"/>
</g>
<defs>
<clipPath id="clip0_4277_16832">
<rect width="40" height="32.6316" fill="white"/>
</clipPath>
</defs>
</svg>
