<?xml version="1.0" encoding="UTF-8" standalone="no"?>
<!-- Generator: Adobe Illustrator 19.1.0, SVG Export Plug-In . SVG Version: 6.00 Build 0)  -->

<svg
   xmlns:dc="http://purl.org/dc/elements/1.1/"
   xmlns:cc="http://creativecommons.org/ns#"
   xmlns:rdf="http://www.w3.org/1999/02/22-rdf-syntax-ns#"
   xmlns:svg="http://www.w3.org/2000/svg"
   xmlns="http://www.w3.org/2000/svg"
   xmlns:sodipodi="http://sodipodi.sourceforge.net/DTD/sodipodi-0.dtd"
   xmlns:inkscape="http://www.inkscape.org/namespaces/inkscape"
   version="1.1"
   x="0px"
   y="0px"
   viewBox="0 0 111.9 79.1"
   style="enable-background:new 0 0 111.9 79.1;"
   xml:space="preserve"
   id="svg2"
   inkscape:version="0.91 r13725"
   sodipodi:docname="alatunniste_tausta.svg"><metadata
     id="metadata27"><rdf:RDF><cc:Work
         rdf:about=""><dc:format>image/svg+xml</dc:format><dc:type
           rdf:resource="http://purl.org/dc/dcmitype/StillImage" /></cc:Work></rdf:RDF></metadata><defs
     id="defs25" /><sodipodi:namedview
     pagecolor="#ffffff"
     bordercolor="#666666"
     borderopacity="1"
     objecttolerance="10"
     gridtolerance="10"
     guidetolerance="10"
     inkscape:pageopacity="0"
     inkscape:pageshadow="2"
     inkscape:window-width="1920"
     inkscape:window-height="1016"
     id="namedview23"
     showgrid="false"
     inkscape:zoom="10.866845"
     inkscape:cx="25.187489"
     inkscape:cy="13.810428"
     inkscape:window-x="0"
     inkscape:window-y="27"
     inkscape:window-maximized="1"
     inkscape:current-layer="svg2" /><style
     type="text/css"
     id="style4">
	.st0{fill:#F7F8F8;}
	.st1{fill:#E1E9EC;}
	.st2{fill:#FFFFFF;stroke:#E6E7E8;stroke-width:0.5;stroke-miterlimit:10;}
	.st3{fill:#009DCD;}
	.st4{fill:#FFFFFF;}
	.st5{fill:#085870;}
	.st6{fill:#939598;}
	.st7{clip-path:url(#SVGID_2_);}
	.st8{fill:#ECF3F6;}
	.st9{fill-rule:evenodd;clip-rule:evenodd;}
	.st10{fill:#FFD400;}
	.st11{fill:#F7941E;}
	.st12{fill:#ED1C24;}
	.st13{fill:#8DC63F;}
	.st14{fill:#92278F;}
	.st15{fill:#00A651;}
	.st16{fill:#00707E;}
	.st17{fill:#2E3192;}
	.st18{fill-rule:evenodd;clip-rule:evenodd;fill:#FFFFFF;}
	.st19{fill:#00526C;}
	.st20{fill:#8FC3CC;}
</style><g
     id="bg"
     style="fill:#483e37" /><g
     id="Layer_2"
     style="fill:#e1e4e5;fill-opacity:1"
     transform="matrix(1.0161242,0,0,1.0161242,-0.9692436,-0.49479096)"><g
       id="g8"
       style="fill:#e1e4e5;fill-opacity:1"><g
         id="g10"
         style="fill:#e1e4e5;fill-opacity:1"><g
           id="XMLID_12_"
           style="fill:#e1e4e5;fill-opacity:1"><g
             id="g13"
             style="fill:#e1e4e5;fill-opacity:1"><path
               class="st1"
               d="m 1038.7,0 0,79.1 -990.2,0 c 3.1,-1.5 6.1,-2.5 9.5,-3.3 0,0 3.4,-0.8 3.5,-0.8 0.1,0 2.3,-2.7 2.3,-2.7 3.3,-4 7,-7.1 12,-9.9 L 93.7,53 c 0.2,-0.1 0.3,-0.4 0.2,-0.6 -0.1,-0.2 -0.4,-0.3 -0.6,-0.2 l -18.6,8.3 c -4.8,2.3 -9.2,5.6 -12.6,9.6 l -2.1,2.5 -3.2,0.7 c -4.7,1.1 -9.2,3.1 -13.2,5.8 l -9.7,0 5.4,-4.2 c 4.2,-3.2 9,-5.5 14.2,-6.7 l 3.3,-0.7 2.2,-2.6 c 3.4,-4 7.7,-7.3 12.5,-9.5 l 20.2,-9.3 c 1.2,-0.5 1.6,-2 0.9,-3.1 L 66.7,0 l 972,0 z"
               id="path15"
               style="fill:#e1e4e5;fill-opacity:1"
               inkscape:connector-curvature="0" /><path
               class="st1"
               d="M 0,0 37.7,0 C 33,2.2 28.8,5.4 25.4,9.4 l -2.2,2.6 -3.3,0.7 c -5.2,1.2 -10,3.4 -14.2,6.7 L 0,23.9 0,0 Z"
               id="path17"
               style="fill:#e1e4e5;fill-opacity:1"
               inkscape:connector-curvature="0" /><path
               class="st1"
               d="m 58.5,38.9 c 0.4,0.2 0.7,0.4 0.9,0.8 0.3,0.5 0.2,2.2 -0.4,4.8 -0.6,2.7 -1.6,5 -3,7.1 -1.4,2.1 -3.1,3.7 -5.2,5 -4.6,2.8 -9.5,3.4 -14.6,2 C 31.1,57.1 27,53.9 24,49 21,44 19.9,38.9 20.9,33.5 c 1,-5.3 3.8,-9.4 8.5,-12.3 3.9,-2.4 8,-3.1 12.3,-2.2 4.2,1 7.3,3 9.2,6.1 0.4,0.7 0.2,1.3 -0.7,1.9 L 29.3,39.9 c 0.7,1.5 1.5,2.9 2.4,4.4 2.5,4.1 5.4,6.7 8.7,7.7 3.3,1 6.7,0.4 10.3,-1.7 1.8,-1.1 3.3,-2.7 4.6,-4.8 1.2,-2.1 2,-4.2 2.2,-6.4 l 0.1,-0.2 c 0.2,-0.2 0.5,-0.2 0.9,0 z M 40.4,26.8 c -1,-1.7 -2.5,-2.7 -4.3,-3.2 -1.9,-0.4 -3.7,-0.1 -5.5,1 -1.7,1.1 -2.8,2.7 -3.2,4.9 -0.4,2.2 -0.1,4.7 0.9,7.3 l 9.3,-6 c 1.4,-0.9 2.3,-1.6 2.8,-2.3 0.3,-0.5 0.4,-1.1 0,-1.7 z"
               id="path19"
               style="fill:#e1e4e5;fill-opacity:1"
               inkscape:connector-curvature="0" /><polygon
               class="st1"
               points="0,79.1 0,57.4 13.2,79.1 "
               id="polygon21"
               style="fill:#e1e4e5;fill-opacity:1" /></g></g></g></g></g></svg>