<?xml version="1.0" encoding="utf-8"?>
<!-- Generator: Adobe Illustrator 19.1.0, SVG Export Plug-In . SVG Version: 6.00 Build 0)  -->
<svg version="1.1" xmlns="http://www.w3.org/2000/svg" xmlns:xlink="http://www.w3.org/1999/xlink" x="0px" y="0px"
	 viewBox="0 0 192.6 48.1" style="enable-background:new 0 0 192.6 48.1;" xml:space="preserve">
<style type="text/css">
	.st0{fill:#F7F8F8;}
	.st1{fill:#E1E9EC;}
	.st2{fill:#FFFFFF;stroke:#E6E7E8;stroke-width:0.5;stroke-miterlimit:10;}
	.st3{fill:#009DCD;}
	.st4{fill:#FFFFFF;}
	.st5{fill:#085870;}
	.st6{fill:#939598;}
	.st7{clip-path:url(#SVGID_2_);}
	.st8{fill:#ECF3F6;}
	.st9{fill-rule:evenodd;clip-rule:evenodd;}
	.st10{fill:#FFD400;}
	.st11{fill:#F7941E;}
	.st12{fill:#ED1C24;}
	.st13{fill:#8DC63F;}
	.st14{fill:#92278F;}
	.st15{fill:#00A651;}
	.st16{fill:#00707E;}
	.st17{fill:#2E3192;}
	.st18{fill-rule:evenodd;clip-rule:evenodd;fill:#FFFFFF;}
	.st19{fill:#00526C;}
	.st20{fill:#8FC3CC;}
</style>
<g id="bg">
</g>
<g id="Layer_2">
	<g>
		<path d="M59.9,28.1v3.8c0,1.3,0.8,2.3,2.2,2.3s2.2-1,2.2-2.3v-3.8h-0.8v3.6c0,1-0.3,1.9-1.5,1.9c-1.2,0-1.5-0.9-1.5-1.9v-3.6H59.9
			L59.9,28.1z"/>
		<polygon points="69.3,28.8 70.8,28.8 70.8,28.1 67.1,28.1 67.1,28.8 68.6,28.8 68.6,34.1 69.3,34.1 69.3,28.8 		"/>
		<path class="st9" d="M74.4,28.7h0.2c0.7,0,1.3,0.1,1.3,1c0,0.9-0.6,1-1.3,1h-0.2V28.7L74.4,28.7z M74.4,31.3h0.5
			c0.7,0,1.5,0.2,1.5,1c0,0.9-0.7,1.1-1.4,1.1h-0.6V31.3L74.4,31.3z M73.7,34.1h1.4c1.1,0,2.1-0.5,2.1-1.7c0-0.7-0.5-1.4-1.2-1.5v0
			c0.4-0.2,0.6-0.7,0.6-1.1c0-1.4-1.1-1.7-2.2-1.7h-0.7V34.1L73.7,34.1z"/>
		<polygon points="81.2,28.1 80.4,28.1 80.4,34.1 81.2,34.1 81.2,28.1 		"/>
		<polygon points="85.4,28.1 84.7,28.1 84.7,34.1 87.3,34.1 87.3,33.4 85.4,33.4 85.4,28.1 		"/>
		<path class="st9" d="M90.1,34.1h1.2c1.9,0,3.4-1,3.4-3c0-2-1.5-3-3.4-3h-1.2V34.1L90.1,34.1z M90.9,28.8h0.3
			c1.5,0,2.9,0.6,2.9,2.3c0,1.8-1.3,2.3-2.9,2.3h-0.3V28.8L90.9,28.8z"/>
		<polygon points="97.9,34.1 98.6,34.1 98.6,29.6 103.2,34.4 103.2,28.1 102.4,28.1 102.4,32.5 97.9,27.8 97.9,34.1 		"/>
		<polygon points="107.5,28.1 106.7,28.1 106.7,34.1 107.5,34.1 107.5,28.1 		"/>
		<polygon points="111,34.1 111.7,34.1 111.7,29.6 116.3,34.4 116.3,28.1 115.5,28.1 115.5,32.5 111,27.8 111,34.1 		"/>
		<path d="M122.8,31.1v0.7h1.6c0,1-1,1.8-2,1.8c-1.3,0-2.3-1.2-2.3-2.5c0-1.4,1.1-2.4,2.4-2.4c0.7,0,1.5,0.4,1.9,1l0.5-0.5
			c-0.6-0.7-1.5-1.2-2.5-1.2c-1.7,0-3.1,1.4-3.1,3.2c0,1.7,1.4,3.1,3,3.1s2.9-1.3,2.9-2.9v-0.2H122.8L122.8,31.1z"/>
		<path d="M131.7,28.9c-0.3-0.6-0.9-0.9-1.6-0.9c-0.9,0-1.8,0.6-1.8,1.6c0,0.8,0.6,1.2,1.3,1.5l0.4,0.2c0.5,0.2,1,0.5,1,1.1
			c0,0.6-0.5,1.2-1.1,1.2c-0.6,0-1.2-0.5-1.2-1.1l-0.8,0.2c0.1,1,0.9,1.7,1.9,1.7c1.1,0,1.9-0.8,1.9-1.9c0-1-0.6-1.5-1.5-1.8
			l-0.4-0.2c-0.4-0.1-0.8-0.4-0.8-0.9c0-0.5,0.5-0.9,1-0.9c0.5,0,0.7,0.2,1,0.6L131.7,28.9L131.7,28.9z"/>
		<path d="M138.5,28.9c-0.3-0.6-0.9-0.9-1.6-0.9c-0.9,0-1.8,0.6-1.8,1.6c0,0.8,0.6,1.2,1.3,1.5l0.4,0.2c0.5,0.2,1,0.5,1,1.1
			c0,0.6-0.5,1.2-1.1,1.2c-0.6,0-1.2-0.5-1.2-1.1l-0.8,0.2c0.1,1,0.9,1.7,1.9,1.7c1.1,0,1.9-0.8,1.9-1.9c0-1-0.6-1.5-1.5-1.8
			l-0.4-0.2c-0.4-0.1-0.8-0.4-0.8-0.9c0-0.5,0.5-0.9,1-0.9c0.5,0,0.7,0.2,1,0.6L138.5,28.9L138.5,28.9z"/>
		<polygon points="143.6,28.8 145.1,28.8 145.1,28.1 141.4,28.1 141.4,28.8 142.9,28.8 142.9,34.1 143.6,34.1 143.6,28.8 		"/>
		<polygon points="149.5,31.5 149.5,34.1 150.2,34.1 150.2,31.5 152.2,28.1 151.3,28.1 149.9,30.6 148.4,28.1 147.5,28.1 
			149.5,31.5 		"/>
		<path class="st9" d="M157,31.5c0.9-0.1,1.4-0.8,1.4-1.7c0-0.6-0.3-1.1-0.8-1.4c-0.5-0.3-1.1-0.3-1.6-0.3h-0.9v6h0.8v-2.6h0.3
			l1.8,2.6h0.9L157,31.5L157,31.5z M155.9,28.7h0.2c0.7,0,1.6,0.1,1.6,1.1c0,1-0.8,1.1-1.6,1.1h-0.2V28.7L155.9,28.7z"/>
		<polygon points="161.9,34.1 165.1,34.1 165.1,33.4 162.6,33.4 162.6,31.1 165,31.1 165,30.4 162.6,30.4 162.6,28.8 165.1,28.8 
			165.1,28.1 161.9,28.1 161.9,34.1 		"/>
		<polygon points="169.2,28.1 168.4,28.1 168.4,34.1 171,34.1 171,33.4 169.2,33.4 169.2,28.1 		"/>
		<path d="M177.3,28.9c-0.3-0.6-0.9-0.9-1.6-0.9c-0.9,0-1.8,0.6-1.8,1.6c0,0.8,0.6,1.2,1.3,1.5l0.4,0.2c0.5,0.2,1,0.5,1,1.1
			c0,0.6-0.5,1.2-1.1,1.2c-0.6,0-1.2-0.5-1.2-1.1l-0.8,0.2c0.1,1,0.9,1.7,1.9,1.7c1.1,0,1.9-0.8,1.9-1.9c0-1-0.6-1.5-1.5-1.8
			l-0.4-0.2c-0.4-0.1-0.8-0.4-0.8-0.9c0-0.5,0.5-0.9,1-0.9c0.5,0,0.7,0.2,1,0.6L177.3,28.9L177.3,28.9z"/>
		<polygon points="180.8,34.1 184,34.1 184,33.4 181.5,33.4 181.5,31.1 183.9,31.1 183.9,30.4 181.5,30.4 181.5,28.8 184,28.8 
			184,28.1 180.8,28.1 180.8,34.1 		"/>
		<polygon points="187.3,34.1 188.1,34.1 188.1,29.6 192.6,34.4 192.6,28.1 191.9,28.1 191.9,32.5 187.3,27.8 187.3,34.1 		"/>
		<path class="st9" d="M62.7,14.3c-1.7,0-3.2,1.4-3.2,3.1c0,1.8,1.4,3.1,3.2,3.1c1.7,0,3.2-1.4,3.2-3.1
			C65.8,15.8,64.4,14.3,62.7,14.3L62.7,14.3z M62.7,19.9c-1.3,0-2.4-1.1-2.4-2.4c0-1.3,1-2.4,2.4-2.4c1.4,0,2.4,1.1,2.4,2.4
			C65.1,18.9,64,19.9,62.7,19.9L62.7,19.9z"/>
		<path class="st9" d="M69.7,18h0.4c1.1,0,2.1-0.5,2.1-1.8c0-1.1-0.6-1.7-2.4-1.7H69v6h0.8V18L69.7,18z M69.7,15.1h0.2
			c0.7,0,1.6,0.1,1.6,1.1c0,1-0.8,1.1-1.6,1.1h-0.2V15.1L69.7,15.1z"/>
		<polygon points="75.5,20.5 78.7,20.5 78.7,19.8 76.2,19.8 76.2,17.5 78.7,17.5 78.7,16.8 76.2,16.8 76.2,15.2 78.7,15.2 
			78.7,14.5 75.5,14.5 75.5,20.5 		"/>
		<polygon points="83.8,15.2 85.2,15.2 85.2,14.5 81.6,14.5 81.6,15.2 83,15.2 83,20.5 83.8,20.5 83.8,15.2 		"/>
		<path d="M88.2,14.5v3.8c0,1.3,0.8,2.3,2.2,2.3c1.4,0,2.2-1,2.2-2.3v-3.8h-0.8V18c0,1-0.3,1.9-1.5,1.9c-1.2,0-1.5-0.9-1.5-1.9v-3.6
			H88.2L88.2,14.5z"/>
		<path d="M99.4,15.3c-0.3-0.6-0.9-0.9-1.6-0.9c-0.9,0-1.8,0.6-1.8,1.6c0,0.8,0.6,1.2,1.3,1.5l0.4,0.2c0.5,0.2,1,0.5,1,1.1
			c0,0.6-0.5,1.2-1.1,1.2c-0.6,0-1.2-0.5-1.2-1.1l-0.8,0.2c0.1,1,0.9,1.7,1.9,1.7c1.1,0,1.9-0.8,1.9-1.9c0-1-0.6-1.5-1.5-1.8
			l-0.4-0.2c-0.4-0.1-0.8-0.4-0.8-0.9c0-0.5,0.5-0.9,1-0.9c0.5,0,0.7,0.2,1,0.6L99.4,15.3L99.4,15.3z"/>
		<polygon points="103.4,16.9 103.4,14.5 102.7,14.5 102.7,20.5 103.4,20.5 103.4,17.6 106.3,17.6 106.3,20.5 107,20.5 107,14.5 
			106.3,14.5 106.3,16.9 103.4,16.9 		"/>
		<path class="st9" d="M114.2,19l0.7,1.5h0.8l-2.9-6.3l-2.9,6.3h0.8l0.7-1.5H114.2L114.2,19z M113.9,18.3h-2.1l1.1-2.4L113.9,18.3
			L113.9,18.3z"/>
		<polygon points="119.5,14.5 118.8,14.5 118.8,20.5 121.4,20.5 121.4,19.8 119.5,19.8 119.5,14.5 		"/>
		<polygon points="125.2,14.5 124.4,14.5 124.4,20.5 127,20.5 127,19.8 125.2,19.8 125.2,14.5 		"/>
		<polygon points="130.8,14.5 130,14.5 130,20.5 130.8,20.5 130.8,14.5 		"/>
		<polygon points="136.1,15.2 137.5,15.2 137.5,14.5 133.9,14.5 133.9,15.2 135.3,15.2 135.3,20.5 136.1,20.5 136.1,15.2 		"/>
		<path d="M140.5,14.5v3.8c0,1.3,0.8,2.3,2.2,2.3c1.4,0,2.2-1,2.2-2.3v-3.8h-0.8V18c0,1-0.3,1.9-1.5,1.9c-1.2,0-1.5-0.9-1.5-1.9
			v-3.6H140.5L140.5,14.5z"/>
		<path d="M151.7,15.3c-0.3-0.6-0.9-0.9-1.6-0.9c-0.9,0-1.8,0.6-1.8,1.6c0,0.8,0.6,1.2,1.3,1.5l0.4,0.2c0.5,0.2,1,0.5,1,1.1
			c0,0.6-0.5,1.2-1.1,1.2s-1.2-0.5-1.2-1.1l-0.8,0.2c0.1,1,0.9,1.7,1.9,1.7c1.1,0,1.9-0.8,1.9-1.9c0-1-0.6-1.5-1.5-1.8l-0.4-0.2
			c-0.4-0.1-0.8-0.4-0.8-0.9c0-0.5,0.5-0.9,1-0.9c0.5,0,0.7,0.2,1,0.6L151.7,15.3L151.7,15.3z"/>
		<polygon class="st10" points="8,16 16,24.1 8,32.1 0,24 8,16 		"/>
		<polygon class="st11" points="16,8 24,16 16,24.1 8,16 16,8 		"/>
		<polygon class="st12" points="24,0 32.1,8 24,16 16,8 24,0 		"/>
		<polygon class="st13" points="16,24.1 24,32.1 16,40.1 8,32.1 16,24.1 		"/>
		<polygon class="st4" points="24,16 32.1,24.1 24,32.1 16,24.1 24,16 		"/>
		<polygon class="st14" points="32.1,8 40.1,16 32.1,24.1 24,16 32.1,8 		"/>
		<polygon class="st15" points="24,32.1 32.1,40.1 24,48.1 16,40.1 24,32.1 		"/>
		<polygon class="st16" points="32.1,24.1 40.1,32.1 32.1,40.1 24,32.1 32.1,24.1 		"/>
		<polygon class="st17" points="40.1,16 48.1,24.1 40.1,32.1 32.1,24.1 40.1,16 		"/>
	</g>
</g>
</svg>
