<svg id="Layer_1" data-name="Layer 1" xmlns="http://www.w3.org/2000/svg" xmlns:xlink="http://www.w3.org/1999/xlink" viewBox="0 0 910.75 257.17"><defs><style>.cls-1{fill:none;}.cls-2{clip-path:url(#clip-path);}.cls-3{fill:#1d1d1b;}.cls-4{fill:#5bca13;}.cls-5{fill:#0041dc;}</style><clipPath id="clip-path" transform="translate(-2.77 -4.1)"><rect class="cls-1" x="-128.63" y="-128.1" width="1173.54" height="521.58"/></clipPath></defs><title>oph_logo_vaaka</title><g class="cls-2"><path class="cls-3" d="M913.52,186.58v-32H910.1v25.61l-17-25.61h-3.24v32h3.42v-25.7l17,25.7h3.24Zm-34.15,0v-3.06H862.89V172h14V168.9h-14V157.6h16.47v-3.06H859.47v32h19.89Zm-30.42-8.82a8,8,0,0,0-2.7-6.34c-1.35-1.17-2.83-1.8-5.85-2.25l-3.51-.54a9.22,9.22,0,0,1-4.32-1.75,4.63,4.63,0,0,1-1.44-3.69c0-3.56,2.48-5.94,6.75-5.94a10.1,10.1,0,0,1,7.47,2.75l2.21-2.21a12.86,12.86,0,0,0-9.54-3.51c-6.34,0-10.26,3.6-10.26,9a7.57,7.57,0,0,0,2.43,6,11.65,11.65,0,0,0,5.89,2.43l3.73,0.59c2.34,0.36,3.15.63,4.18,1.53a5.16,5.16,0,0,1,1.53,4c0,3.74-2.88,5.94-7.56,5.94a11,11,0,0,1-8.73-3.51l-2.34,2.34c3,3,6.16,4.23,11,4.23,6.66,0,11.07-3.47,11.07-9.09m-26.86,8.82v-3.06H805.7v-29h-3.42v32h19.8Zm-30.28,0v-3.06H775.32V172h14V168.9h-14V157.6h16.47v-3.06H771.9v32h19.89ZM757.37,163.5c0,3.91-2.66,5.85-6.39,5.85h-8.55V157.6H751c3.73,0,6.39,2,6.39,5.9m4,23.09L753.81,172a8.31,8.31,0,0,0,7-8.59c0-5.53-3.91-8.91-9.49-8.91H739v32h3.42V172.36h7.69l7.29,14.22h4Zm-30.78-32h-3.69l-7.47,15.35-7.56-15.34h-3.69l9.54,18.81v13.23h3.42V173.35Zm-28.17,3.06v-3.06h-22v3.06h9.27v29h3.42v-29h9.27Zm-27,20.16a8,8,0,0,0-2.7-6.34c-1.35-1.17-2.83-1.8-5.85-2.25l-3.51-.54a9.22,9.22,0,0,1-4.32-1.75,4.63,4.63,0,0,1-1.44-3.69c0-3.56,2.47-5.94,6.75-5.94a10.1,10.1,0,0,1,7.47,2.75l2.2-2.21a12.86,12.86,0,0,0-9.54-3.51c-6.35,0-10.26,3.6-10.26,9a7.57,7.57,0,0,0,2.43,6,11.65,11.65,0,0,0,5.9,2.43l3.73,0.59c2.34,0.36,3.15.63,4.18,1.53a5.16,5.16,0,0,1,1.53,4c0,3.74-2.88,5.94-7.56,5.94a11,11,0,0,1-8.73-3.51l-2.34,2.34c3,3,6.16,4.23,11,4.23,6.66,0,11.07-3.47,11.07-9.09m-29.11,0a8,8,0,0,0-2.7-6.34c-1.35-1.17-2.84-1.8-5.85-2.25l-3.51-.54a9.22,9.22,0,0,1-4.32-1.75,4.63,4.63,0,0,1-1.44-3.69c0-3.56,2.47-5.94,6.75-5.94A10.09,10.09,0,0,1,642.8,160l2.21-2.21a12.86,12.86,0,0,0-9.54-3.51c-6.35,0-10.26,3.6-10.26,9a7.57,7.57,0,0,0,2.43,6,11.65,11.65,0,0,0,5.89,2.43l3.73,0.59c2.34,0.36,3.15.63,4.18,1.53a5.16,5.16,0,0,1,1.53,4c0,3.74-2.88,5.94-7.56,5.94a11,11,0,0,1-8.73-3.51l-2.34,2.34c3,3,6.17,4.23,11,4.23,6.66,0,11.07-3.47,11.07-9.09m-30.64-2.88V169.8H604.46v3h7.87v2.43a8.4,8.4,0,0,1-1.8,5.8,7.81,7.81,0,0,1-6.07,2.75,7.71,7.71,0,0,1-5.54-2.25c-2-2.07-2.25-4.28-2.25-11s0.23-8.87,2.25-10.94a7.75,7.75,0,0,1,5.54-2.29c4,0,6.88,2.47,7.78,6.52h3.42c-0.94-5.62-5.08-9.58-11.2-9.58a11.34,11.34,0,0,0-8.19,3.33c-3,3-3,6.16-3,13s0,9.94,3,13a11.74,11.74,0,0,0,16.74-.36c2-2.12,2.74-4.59,2.74-8.28m-33.93,11.7v-32h-3.42v25.61l-17-25.61h-3.24v32h3.42v-25.7l17,25.7h3.24Zm-36.31-32H542.1v32h3.42v-32Zm-16.06,32v-32H526v25.61l-17-25.61h-3.24v32h3.42v-25.7l17,25.7h3.24ZM490.93,170.2c0,3.92.09,8.69-2.12,11a8.34,8.34,0,0,1-6.3,2.34h-7V157.6h7a8.34,8.34,0,0,1,6.3,2.34c2.2,2.3,2.12,6.34,2.12,10.26m3.42,0c0-4.45.18-9.36-3.15-12.69a11.2,11.2,0,0,0-8.1-3h-11v32h11a11.2,11.2,0,0,0,8.1-3c3.33-3.33,3.15-9,3.15-13.41m-31.59,16.38v-3.06H446.38v-29H443v32h19.8Zm-32.44-32H426.9v32h3.42v-32ZM412,177.63c0,3.6-2.48,5.9-6.43,5.9h-8.73V171.78h8.73c4,0,6.43,2.25,6.43,5.85m-0.5-14.49c0,3.83-2.75,5.58-6.3,5.58h-8.37V157.6h8.37c3.55,0,6.3,1.71,6.3,5.53m3.91,14.58a7.75,7.75,0,0,0-5.22-7.6,7.34,7.34,0,0,0,4.72-7c0-5.35-3.87-8.55-9.45-8.55H393.46v32h12.47c5.67,0,9.54-3.06,9.54-8.87M384.1,157.6v-3.06h-22v3.06h9.27v29h3.42v-29h9.27ZM353.23,176V154.54h-3.42v21.2c0,4.86-3.11,8.05-7.79,8.05s-7.74-3.19-7.74-8.05v-21.2h-3.42V176c0,6.39,4.68,10.85,11.16,10.85s11.21-4.45,11.21-10.84" transform="translate(-2.77 -4.1)"/><path class="cls-3" d="M739.42,111.76a8,8,0,0,0-2.7-6.34c-1.35-1.17-2.83-1.8-5.85-2.25l-3.51-.54a9.22,9.22,0,0,1-4.32-1.75,4.63,4.63,0,0,1-1.44-3.69c0-3.56,2.48-5.94,6.75-5.94A10.1,10.1,0,0,1,735.82,94l2.2-2.2a12.86,12.86,0,0,0-9.54-3.51c-6.34,0-10.26,3.6-10.26,9a7.57,7.57,0,0,0,2.43,6,11.65,11.65,0,0,0,5.9,2.43l3.73,0.58c2.34,0.36,3.15.63,4.18,1.53a5.16,5.16,0,0,1,1.53,4c0,3.73-2.88,5.94-7.56,5.94a11,11,0,0,1-8.73-3.51l-2.34,2.34c3,3,6.16,4.23,11,4.23,6.66,0,11.07-3.46,11.07-9.09M707.92,110V88.54H704.5v21.19c0,4.86-3.11,8.06-7.79,8.06s-7.74-3.2-7.74-8.06V88.54h-3.42V110c0,6.39,4.68,10.85,11.16,10.85s11.2-4.45,11.2-10.84M676.64,91.6V88.54h-22V91.6H664v29h3.42v-29h9.27Zm-31.32-3.06H641.9v32h3.42v-32Zm-12.78,32v-3.06H616.16v-29h-3.42v32h19.8Zm-29.16,0v-3.06H587v-29h-3.42v32h19.8Zm-35.55-10.22h-12l6-16.92Zm7.2,10.22-11.74-32h-2.88l-11.79,32h3.65l2.57-7.25h14l2.57,7.25H575Zm-35,0v-32h-3.42V102.9H521.44V88.54H518v32h3.42V106h15.21v14.63h3.42Zm-32.58-8.82a8,8,0,0,0-2.7-6.34c-1.35-1.17-2.83-1.8-5.85-2.25l-3.51-.54a9.22,9.22,0,0,1-4.32-1.75,4.63,4.63,0,0,1-1.44-3.69c0-3.56,2.48-5.94,6.75-5.94A10.1,10.1,0,0,1,503.89,94l2.2-2.2a12.86,12.86,0,0,0-9.54-3.51c-6.34,0-10.26,3.6-10.26,9a7.57,7.57,0,0,0,2.43,6,11.65,11.65,0,0,0,5.89,2.43l3.73,0.58c2.34,0.36,3.15.63,4.18,1.53a5.16,5.16,0,0,1,1.53,4c0,3.73-2.88,5.94-7.56,5.94a11,11,0,0,1-8.73-3.51l-2.34,2.34c3,3,6.16,4.23,11,4.23,6.66,0,11.07-3.46,11.07-9.09M476,110V88.54h-3.42v21.19c0,4.86-3.1,8.06-7.78,8.06s-7.74-3.2-7.74-8.06V88.54h-3.42V110c0,6.39,4.68,10.85,11.16,10.85S476,116.4,476,110M444.72,91.6V88.54h-22V91.6H432v29h3.42v-29h9.27Zm-29.16,29v-3.06H399.09V106h14V102.9h-14V91.6h16.47V88.54H395.67v32h19.89ZM382.35,97.95c0,4.23-2.79,6.39-6.8,6.39h-8.19V91.6h8.19c4,0,6.8,2.12,6.8,6.34m3.42,0c0-5.76-4-9.4-9.9-9.4H363.94v32h3.42V107.4h8.5c5.85,0,9.9-3.69,9.9-9.45m-36.67,6.62c0,6.7-.23,8.86-2.25,10.94a7.82,7.82,0,0,1-11.07,0c-2-2.07-2.25-4.23-2.25-10.94s0.23-8.87,2.25-10.94a7.82,7.82,0,0,1,11.07,0c2,2.07,2.25,4.23,2.25,10.94m3.42,0c0-6.8,0-9.95-3-13a11.74,11.74,0,0,0-16.38,0c-3,3-3,6.17-3,13s0,9.94,3,13a11.74,11.74,0,0,0,16.38,0c3-3,3-6.16,3-13" transform="translate(-2.77 -4.1)"/><path class="cls-4" d="M77.44,78.11C97.63,37.45,128,1.9,107.86,4.21A100.4,100.4,0,0,0,74.95,14.35,116.29,116.29,0,0,1,89.31,8.48S47.43,25.71,31.79,74.9A127.87,127.87,0,0,1,52.51,58.72c34.74-22-.61,22-8.37,77.66,7-9,15.81-23,25.84-38.3a110.24,110.24,0,0,1,7.45-20M187,72.47c-8.1-2.32-16.52,2.4-25,11.45-3,7.3-6.08,15.53-9.3,24.87-13.52,39.26-30.36,112-55,103a30.51,30.51,0,0,1-6.12-3.05c-3.68,6.11-7.11,10.92-10.21,13.87A32.86,32.86,0,0,1,72.13,229c46.68,45.94,132.65,44,127.76-13.09-6-69.91-5.39-98.11-4.85-140.18a30.39,30.39,0,0,0-8-3.22m78.77,59a137.6,137.6,0,0,0-3.42-29.26c-8.12-35.61-39.42-77.59-57-74.84-3.7.58-10.19,1.79-19,12.2,3.17,3.95,6.41,8.3,9.68,12.91,6.45-64.24,45.69,15.84,56.06,84a12,12,0,0,0,5.61,2.62c6.87,1.43,8-6.29,8.1-7.6" transform="translate(-2.77 -4.1)"/><path class="cls-5" d="M168.72,22.19C109.22-14,33.49,189.59,27.82,138.39,13.2,39.72,89.31,8.48,89.31,8.48,40.4,24.66,1.91,74.43,2.78,131.87c0.88,57.75,33.11,90.87,44.73,96.61,14.71,7.27,27.56.37,33.9-5.86C105.8,199.43,149.86,61.81,187,72.47c41.56,10,36.05,97.61,38.06,114.41,4,33.48,13.37,29.49,26.42,4.89,8.75-16.49,14.44-35.5,14.31-60.55,0,0-.62,9.37-8.12,7.81-6.73-1.4-9.25-5.25-26.19-31.76-17.73-27.74-44.85-74.18-62.76-85.08" transform="translate(-2.77 -4.1)"/></g></svg>