<svg version="1.0" xmlns="http://www.w3.org/2000/svg" width="933.33" height="933.33" viewBox="0 0 700 700">
    <path d="M382.7 79.6c-.1.1-3.8.5-8.2.8-11.4 1-13.1 1.3-23.7 3.6-37.1 8-71.7 26.7-97.3 52.5-4.9 5-10 10.3-11.3 11.9-12.7 15.4-17.1 21.1-23.5 30.8-18.5 28.1-32.3 58.1-43.8 95.1-2.2 7.3-4.2 13.9-4.4 14.7-.2.8-2.1 9.1-4.4 18.5-3.8 16.5-7.8 37.6-10.1 54-.6 4.4-1.3 9.1-1.5 10.5-.2 1.4-.6 5.9-1 10-.3 4.1-.8 9.1-1 11-.3 1.9-.7 6.4-1 10-.3 3.6-.7 8.1-1 10-.2 1.9-.7 6.9-1 11-.4 4.1-.8 9.1-1 11-.3 3.8-1.6 16.7-2.1 21.5-.1 1.6-.6 6.6-.9 11-1.3 16.1-2.6 31.5-3.9 43.5-.3 2.5-.8 7.6-1.2 11.5-.3 3.8-.8 8.1-.9 9.5-.1 1.4-.6 6.1-1 10.5s-.9 8.7-1 9.6c-.2.8-.6 5.5-1 10.3-.3 4.8-.8 9.5-1 10.4-.1.9-.6 6-1 11.2-.4 5.2-.9 10.4-1.1 11.5-.2 1.1-.5 5.2-.6 9.1-.1 6 .2 7.7 2.4 11.5 3.4 5.7 6.3 8.3 12.1 10.9 7.4 3.3 16.1 3 23.4-.6 8.9-4.5 12.3-9.8 14.8-23.9 1.1-6.1 2.5-14.5 3-18 .3-2.2.8-5.1 1-6.5.9-5.2 3.6-23.3 7.1-48.5.8-6.2 1.5-10.8 1.9-13.5.2-1.4.7-4.8 1-7.6.3-2.8.7-6 .9-7.1.3-1.1.7-4.4 1.1-7.4.4-3 1.3-9 2.1-13.4s1.4-8.4 1.4-8.9c0-.7 6.7-.3 16.5.9 6.7.9 12.4 1.4 21 2.1 5 .3 10.6.8 12.5 1 27.7 2.4 89.8 2.4 103-.2 1.4-.2 4.5-.6 7-.9 2.5-.2 6.1-.7 8-1 1.9-.3 4.9-.7 6.5-.9 1.7-.3 5-.9 7.5-1.5 2.5-.5 6.1-1.3 8-1.6 5.3-.9 21.6-5.3 30-8.2 49.6-16.8 85-43.4 113.2-84.8 15.6-22.9 28.4-55 32.3-81.2.3-2.3.8-5.7 1.1-7.5.9-5.4 1.1-33.9.3-38.2-.4-2.3-.9-6.1-1.2-8.6-.6-5-.9-6.5-3.2-16.3-6.2-26.3-19.9-54.3-37.3-76.2-7.1-9-21.8-23.7-30.7-30.7-7.8-6.2-20.9-14.8-22.4-14.8-.5 0-1.1-.3-1.3-.8-1-2.3-31.8-15-42.3-17.4-8.9-2-19.2-3.8-25.4-4.4-6.1-.6-24.9-1.2-25.4-.8zm20.4 81.3c39.3 8.6 71.7 36.3 83.8 71.6 4.3 12.7 5.6 21.3 5.6 37.5 0 17.1-1.2 24.8-6 39.7-5.6 17.2-14.7 31.7-28.4 45.3-19 19-42.4 31.5-73 38.9-12 3-14.4 3.4-23.6 4.7-2.7.3-5.8.8-6.7.9-13.6 2.6-74.1 2.7-89.8.1-3.1-.5-10.3-1.5-15.6-2.1-4.7-.6-34.5-7.2-35.1-7.9-.4-.3.9-11.2 2.2-18.6.2-1.4 1.1-6.8 2-12 8.3-49 21.6-88.2 41.7-123.1 6.8-11.9 27.2-38.3 35.5-46 12.4-11.6 26-19.5 43.6-25.4 19.1-6.4 44.4-7.8 63.8-3.6z"/>
</svg>
