<svg xmlns="http://www.w3.org/2000/svg" height="449.81" width="506.3">
  <g fill="#fff">
    <path d="M506.3 30.16v353.39c0 6.8-6.8 13.59-13.6 11.9l-129.12-15.3c-30.58-3.4-61.16 0-91.74 10.2l-18.69 6.79-18.69-6.8c-28.88-10.19-59.46-13.59-91.74-10.19l-129.13 15.3c-6.8 0-13.59-5.1-13.59-13.6V30.15c0-6.79 5.1-11.89 11.9-13.58L144.4 1.27c30.59-3.4 61.17 0 91.75 10.2l16.99 6.8 18.69-5.1c28.88-10.2 59.46-13.6 91.74-10.2l132.53 15.3c5.1 0 10.19 5.1 10.19 11.89zM350 266.32c0-3.4 0-5.1-1.7-6.8-1.7-1.7-3.4-3.4-5.1-3.4h-1.7c-6.8 10.2-17 18.7-30.58 25.49-11.9 6.8-25.49 10.2-37.38 10.2-23.79 0-44.18-6.8-56.07-22.1-13.6-15.29-20.39-35.67-20.39-64.56 0-10.2 0-20.38 1.7-28.88H341.5c6.8 0 10.2-1.7 10.2-6.8 0-22.08-8.5-40.77-27.2-57.76-18.68-17-40.77-27.19-67.95-27.19-32.28 0-59.47 11.9-79.85 35.68-20.4 22.1-30.59 50.97-30.59 84.95 0 33.98 10.2 61.17 32.28 84.95 22.1 22.09 47.58 33.98 78.16 33.98 13.59 0 27.18-3.4 40.77-8.5 13.6-6.79 25.49-15.28 35.68-27.18 11.9-11.89 17-18.68 17-22.08z" class="st0"/>
    <path d="M282.03 115.1c8.5 8.5 11.9 17 11.9 28.89 0 5.1-1.7 6.8-6.8 8.5-3.4 1.7-10.2 3.4-20.39 3.4l-64.56 1.7c3.4-17 8.5-28.9 16.99-39.09a41.84 41.84 0 0 1 32.28-15.29c11.9 0 22.09 3.4 30.58 11.9z" class="st0"/>
  </g>
  <path d="M480.81 429.42c1.7 0 3.4 1.7 3.4 3.4s-1.7 3.4-3.4 3.4l-117.23-6.8c-33.98-1.7-61.16 3.4-90.04 13.6 0 0-18.7 6.79-20.39 6.79l-20.39-6.8c-28.88-10.2-56.06-13.59-90.04-13.59l-117.24 6.8c-1.7 0-3.4-1.7-3.4-3.4s1.7-3.4 1.7-3.4l117.24-15.3c30.58-3.39 62.86 0 91.74 10.2l18.7 6.8 20.38-5.1c28.88-10.2 61.16-13.59 91.74-10.2z" class="st0" fill="#fff"/>
</svg>
