<?xml version="1.0" encoding="UTF-8"?>
<svg width="26px" height="32px" viewBox="0 0 26 32" version="1.1" xmlns="http://www.w3.org/2000/svg" xmlns:xlink="http://www.w3.org/1999/xlink">
    <!-- Generator: sketchtool 59 (101010) - https://sketch.com -->
    <title>469E1573-57AE-4DCB-8F51-E91D6F6C00C7</title>
    <desc>Created with sketchtool.</desc>
    <g id="ASSETIT" stroke="none" stroke-width="1" fill="none" fill-rule="evenodd">
        <g id="ASSETIT---VALMIUSASTE,-OPS-KORTIT,-HEADER" transform="translate(-68.000000, -1979.000000)" fill="#001A58">
            <g id="Julkinen-puoli/eperusteet-logo" transform="translate(68.000000, 1979.000000)">
                <path d="M8.64940715,7.0651213 C10.7494072,4.2651213 15.1494072,3.6651213 17.9494072,5.7651213 C21.7494072,8.2651213 21.3494072,14.2267288 17.5494072,16.6267288 C15.4494072,18.1267288 12.4621018,18.4267288 10.2494072,18.4267288 C8.0367125,18.4267288 6.54940715,18.2267288 4.64940715,17.7267288 C5.14940715,13.9267288 6.04940715,10.0651213 8.64940715,7.0651213 Z M0.749407151,22.0651213 C0.649407151,23.7651213 0.1,28.5205574 -2.80664381e-13,30.2205574 C0.2,31.6205574 2.3,31.9205574 2.9,30.5205574 C3.3,28.8205574 3.84940715,24.0651213 4.14940715,22.3651213 C8.84940715,22.8651213 14.1494072,23.2651213 18.5494072,21.0651213 C21.5494072,19.6651213 24.1494072,16.4651213 24.8494072,13.1651213 C26.1494072,8.2651213 23.2494072,2.6651213 18.5494072,0.765121295 C14.4494072,-1.0348787 9.14940715,0.465121295 6.24940715,3.9651213 C3.14940715,7.4651213 1.84940715,12.1651213 1.24940715,16.7651213" id="Fill-1"></path>
            </g>
        </g>
    </g>
</svg>