<?xml version="1.0" encoding="UTF-8"?>
<svg width="20px" height="20px" viewBox="0 0 20 20" version="1.1" xmlns="http://www.w3.org/2000/svg" xmlns:xlink="http://www.w3.org/1999/xlink">
    <!-- Generator: sketchtool 58 (101010) - https://sketch.com -->
    <title>CBCE6071-441B-4549-92CC-B33E3BED0A38@2x</title>
    <desc>Created with sketchtool.</desc>
    <defs>
        <path d="M7.43281875,7.10542736e-15 C11.5380217,7.10542736e-15 14.8656375,3.32761578 14.8656375,7.43281875 C14.8656375,9.27387078 14.144291,11.0129417 13.0236506,12.3165438 L13.0236506,12.3165438 L13.338116,12.6310092 L14.1433561,12.7291425 L19.7989899,18.3847763 L18.3847763,19.7989899 L12.7291425,14.1433561 L12.6310092,13.338116 L12.3165438,13.0236506 C11.0129417,14.144291 9.27387078,14.8656375 7.43281875,14.8656375 C3.32761578,14.8656375 2.23110419e-12,11.5380217 2.23110419e-12,7.43281875 C2.23110419e-12,3.32761578 3.32761578,7.10542736e-15 7.43281875,7.10542736e-15 Z M7.5,2 C4.45666667,2 2,4.45666667 2,7.5 C2,10.5433333 4.45666667,13 7.5,13 C10.5433333,13 13,10.5433333 13,7.5 C13,4.45666667 10.5433333,2 7.5,2 Z" id="path-1"></path>
    </defs>
    <g id="ASSETIT" stroke="none" stroke-width="1" fill="none" fill-rule="evenodd">
        <g id="ASSETIT---IKONIT" transform="translate(-189.000000, -347.000000)">
            <g id="Ikonit/Etsi" transform="translate(189.000000, 347.000000)">
                <g>
                    <mask id="mask-2" fill="white">
                        <use xlink:href="#path-1"></use>
                    </mask>
                    <use id="Mask" fill="#000000" fill-rule="nonzero" xlink:href="#path-1"></use>
                    <g id="Väri-Värit/Tumma-harmaa" mask="url(#mask-2)" fill="#575757">
                        <rect id="Rectangle" x="0" y="0" width="20" height="20"></rect>
                    </g>
                </g>
            </g>
        </g>
    </g>
</svg>