<?xml version="1.0" encoding="UTF-8"?>
<svg width="20px" height="20px" viewBox="0 0 20 20" version="1.1" xmlns="http://www.w3.org/2000/svg" xmlns:xlink="http://www.w3.org/1999/xlink">
    <!-- Generator: sketchtool 58 (101010) - https://sketch.com -->
    <title>D2220F8B-5756-45B6-9168-74A22D6FC1E9@2x</title>
    <desc>Created with sketchtool.</desc>
    <defs>
        <path d="M5,9 L3,9 L3,16 L5,16 L5,9 Z M11,9 L9,9 L9,16 L11,16 L11,9 Z M20,18 L0,18 L0,20 L20,20 L20,18 Z M17,9 L15,9 L15,16 L17,16 L17,9 Z M10,2 L16,5 L4,5 L10,2 Z M10,0 L0,5 L0,7 L20,7 L20,5 L10,0 Z" id="path-1"></path>
    </defs>
    <g id="ASSETIT" stroke="none" stroke-width="1" fill="none" fill-rule="evenodd">
        <g id="ASSETIT---IKONIT" transform="translate(-239.000000, -196.000000)">
            <g id="Ikonit/Hallitus" transform="translate(239.000000, 196.000000)">
                <g>
                    <mask id="mask-2" fill="white">
                        <use xlink:href="#path-1"></use>
                    </mask>
                    <use id="Mask" fill="#000000" fill-rule="nonzero" xlink:href="#path-1"></use>
                    <g id="Värit/Tumma-harmaa" mask="url(#mask-2)" fill="#575757">
                        <rect id="Rectangle" x="0" y="0" width="20" height="20"></rect>
                    </g>
                </g>
            </g>
        </g>
    </g>
</svg>