<?xml version="1.0" encoding="UTF-8"?>
<svg width="15px" height="15px" viewBox="0 0 15 15" version="1.1" xmlns="http://www.w3.org/2000/svg" xmlns:xlink="http://www.w3.org/1999/xlink">
    <!-- Generator: sketchtool 58 (101010) - https://sketch.com -->
    <title>93373DE3-119D-43D5-ABBF-C9BDF0FCB64B@2x</title>
    <desc>Created with sketchtool.</desc>
    <defs>
        <path d="M6,0 L6,2 L9,2 L9,0 L11,0 L11,2 L13,2 C13.5522847,2 14,2.44771525 14,3 L14,14 C14,14.5522847 13.5522847,15 13,15 L2,15 C1.44771525,15 1,14.5522847 1,14 L1,3 C1,2.44771525 1.44771525,2 2,2 L4,2 L4,0 L6,0 Z M12,8 L3,8 L3,13 L12,13 L12,8 Z M12,4 L3,4 L3,6 L12,6 L12,4 Z" id="path-1"></path>
    </defs>
    <g id="ASSETIT" stroke="none" stroke-width="1" fill="none" fill-rule="evenodd">
        <g id="ASSETIT---IKONIT" transform="translate(-42.000000, -632.000000)">
            <g id="Ikonit/Kalenteri" transform="translate(42.000000, 632.000000)">
                <g>
                    <mask id="mask-2" fill="white">
                        <use xlink:href="#path-1"></use>
                    </mask>
                    <use id="Combined-Shape" fill="#979797" fill-rule="nonzero" xlink:href="#path-1"></use>
                    <g id="Värit/Tumma-harmaa" mask="url(#mask-2)" fill="#575757">
                        <rect id="Rectangle" x="0" y="0" width="15" height="15"></rect>
                    </g>
                </g>
            </g>
        </g>
    </g>
</svg>