<?xml version="1.0" encoding="UTF-8"?>
<svg width="20px" height="20px" viewBox="0 0 20 20" version="1.1" xmlns="http://www.w3.org/2000/svg" xmlns:xlink="http://www.w3.org/1999/xlink">
    <!-- Generator: sketchtool 58 (101010) - https://sketch.com -->
    <title>F7025E4D-A6C8-443D-8AD8-7B25F4D17CD0@2x</title>
    <desc>Created with sketchtool.</desc>
    <defs>
        <path d="M16,0 L4,0 C2.9,0 2,0.9 2,2 L2,18 C2,19.1 2.9,20 4,20 L16,20 C17.1,20 18,19.1 18,18 L18,2 C18,0.9 17.1,0 16,0 Z M7,2 L9,2 L9,7 L8,6.25 L7,7 L7,2 Z M16,18 L4,18 L4,2 L5,2 L5,11 L8,8.75 L11,11 L11,2 L16,2 L16,18 Z" id="path-1"></path>
    </defs>
    <g id="ASSETIT" stroke="none" stroke-width="1" fill="none" fill-rule="evenodd">
        <g id="ASSETIT---IKONIT" transform="translate(-139.000000, -447.000000)">
            <g id="Ikonit/Käsitteet" transform="translate(138.000000, 447.000000)">
                <g transform="translate(0.500000, 0.000000)">
                    <mask id="mask-2" fill="white">
                        <use xlink:href="#path-1"></use>
                    </mask>
                    <use id="Mask" fill="#000000" fill-rule="nonzero" xlink:href="#path-1"></use>
                    <g id="Värit/Tumma-harmaa" mask="url(#mask-2)" fill="#575757">
                        <rect id="Rectangle" x="0" y="0" width="20" height="20"></rect>
                    </g>
                </g>
            </g>
        </g>
    </g>
</svg>