<?xml version="1.0" encoding="UTF-8"?>
<svg width="20px" height="20px" viewBox="0 0 20 20" version="1.1" xmlns="http://www.w3.org/2000/svg" xmlns:xlink="http://www.w3.org/1999/xlink">
    <!-- Generator: sketchtool 58 (101010) - https://sketch.com -->
    <title>705EA35C-1660-4AAB-82E9-18A1FEBCA31D@2x</title>
    <desc>Created with sketchtool.</desc>
    <defs>
        <path d="M16,16 L16,18 C16,19.1 15.1,20 14,20 L14,20 L2,20 C0.9,20 -1.77635684e-13,19.1 -1.77635684e-13,18 L-1.77635684e-13,18 L-1.77635684e-13,2 C-1.77635684e-13,0.9 0.9,0 2,0 L2,0 L14,0 C15.1,0 16,0.9 16,2 L16,2 L16,4 L14,4 L14,2 L2,2 L2,18 L14,18 L14,16 L16,16 Z M15.4901873,5.59520586 L14.2331085,6.85228458 L16.4895648,9.10874089 L5.8862405,9.10874089 L5.8862405,10.8812219 L16.4895648,10.8812219 L14.2331085,13.1376782 L15.4901873,14.3947569 L19.8899628,9.99498139 L15.4901873,5.59520586 Z" id="path-1"></path>
    </defs>
    <g id="ASSETIT" stroke="none" stroke-width="1" fill="none" fill-rule="evenodd">
        <g id="ASSETIT---IKONIT" transform="translate(-89.000000, -196.000000)">
            <g id="Ikonit/Kirjaudu-ulos" transform="translate(89.000000, 196.000000)">
                <g>
                    <mask id="mask-2" fill="white">
                        <use xlink:href="#path-1"></use>
                    </mask>
                    <use id="Mask" fill="#000000" fill-rule="nonzero" xlink:href="#path-1"></use>
                    <g id="Värit/Tumma-harmaa" mask="url(#mask-2)" fill="#575757">
                        <rect id="Rectangle" x="0" y="0" width="20" height="20"></rect>
                    </g>
                </g>
            </g>
        </g>
    </g>
</svg>