<?xml version="1.0" encoding="UTF-8"?>
<svg width="15px" height="15px" viewBox="0 0 15 15" version="1.1" xmlns="http://www.w3.org/2000/svg" xmlns:xlink="http://www.w3.org/1999/xlink">
    <!-- Generator: sketchtool 58 (101010) - https://sketch.com -->
    <title>10EA0BE7-1267-4ADE-BE72-2411DF03BF1A@2x</title>
    <desc>Created with sketchtool.</desc>
    <defs>
        <path d="M13.4,1 L1.6,1 C0.72,1 0.008,1.73125 0.008,2.625 L0,11.375 C0,12.26875 0.72,13 1.6,13 L13.4,13 C14.28,13 15,12.26875 15,11.375 L15,2.625 C15,1.73125 14.28,1 13.4,1 Z M13,11 L2,11 L2,5 L7.5,9 L13,5 L13,11 Z M7.5,7 L2,3 L13,3 L7.5,7 Z" id="path-1"></path>
    </defs>
    <g id="ASSETIT" stroke="none" stroke-width="1" fill="none" fill-rule="evenodd">
        <g id="ASSETIT---IKONIT" transform="translate(-87.000000, -587.000000)">
            <g id="Ikonit/Kirje" transform="translate(87.000000, 587.000000)">
                <g>
                    <mask id="mask-2" fill="white">
                        <use xlink:href="#path-1"></use>
                    </mask>
                    <use id="Mask" fill="#000000" fill-rule="nonzero" xlink:href="#path-1"></use>
                    <g id="Värit/Tumma-harmaa" mask="url(#mask-2)" fill="#575757">
                        <rect id="Rectangle" x="0" y="0" width="15" height="15"></rect>
                    </g>
                </g>
            </g>
        </g>
    </g>
</svg>