<?xml version="1.0" encoding="UTF-8"?>
<svg width="20px" height="20px" viewBox="0 0 20 20" version="1.1" xmlns="http://www.w3.org/2000/svg" xmlns:xlink="http://www.w3.org/1999/xlink">
    <!-- Generator: sketchtool 58 (101010) - https://sketch.com -->
    <title>B8990042-307E-46C2-96CC-62E8C3847FD5@2x</title>
    <desc>Created with sketchtool.</desc>
    <defs>
        <path d="M5,14 L12,14 L12,16 L5,16 L5,14 Z M5,10 L15,10 L15,12 L5,12 L5,10 Z M5,6 L15,6 L15,8 L5,8 L5,6 Z M17,2 L12.82,2 C12.4,0.84 11.3,-1.77635684e-15 10,-1.77635684e-15 C8.7,-1.77635684e-15 7.6,0.84 7.18,2 L3,2 C2.86,2 2.73,2.01 2.6,2.04 C2.21,2.12 1.86,2.32 1.59,2.59 C1.41,2.77 1.26,2.99 1.16,3.23 C1.06,3.46 1,3.72 1,4 L1,18 C1,18.27 1.06,18.54 1.16,18.78 C1.26,19.02 1.41,19.23 1.59,19.42 C1.86,19.69 2.21,19.89 2.6,19.97 C2.73,19.99 2.86,20 3,20 L17,20 C18.1,20 19,19.1 19,18 L19,4 C19,2.9 18.1,2 17,2 Z M10,1.75 C10.41,1.75 10.75,2.09 10.75,2.5 C10.75,2.91 10.41,3.25 10,3.25 C9.59,3.25 9.25,2.91 9.25,2.5 C9.25,2.09 9.59,1.75 10,1.75 Z M17,18 L3,18 L3,4 L17,4 L17,18 Z" id="path-1"></path>
    </defs>
    <g id="ASSETIT" stroke="none" stroke-width="1" fill="none" fill-rule="evenodd">
        <g id="ASSETIT---IKONIT" transform="translate(-139.000000, -196.000000)">
            <g id="Ikonit/Muistikirja" transform="translate(139.000000, 196.000000)">
                <g id="Ikonit/muistikirja">
                    <mask id="mask-2" fill="white">
                        <use xlink:href="#path-1"></use>
                    </mask>
                    <use id="Mask" fill="#000000" fill-rule="nonzero" xlink:href="#path-1"></use>
                    <g id="Värit/Tumma-harmaa" mask="url(#mask-2)" fill="#575757">
                        <g transform="translate(0.000000, -0.000000)" id="Rectangle">
                            <rect x="0" y="0" width="20" height="20"></rect>
                        </g>
                    </g>
                </g>
            </g>
        </g>
    </g>
</svg>