<?xml version="1.0" encoding="UTF-8"?>
<svg width="20px" height="20px" viewBox="0 0 20 20" version="1.1" xmlns="http://www.w3.org/2000/svg" xmlns:xlink="http://www.w3.org/1999/xlink">
    <!-- Generator: sketchtool 58 (101010) - https://sketch.com -->
    <title>1999B25C-A37C-48DE-9F0D-93C5615E9845@2x</title>
    <desc>Created with sketchtool.</desc>
    <defs>
        <path d="M18.0079443,0 C19.1056189,0 20.0037162,0.909297126 19.999881,2.02062444 C19.9880861,5.39495132 19.999881,13.0158117 19.999881,16.4036428 C19.9977121,18.3889616 18.4085967,19.9978417 16.4476676,20 L2.26130335,20 L2.28696254,19.999 L2.25749254,20 L2.32696254,19.997 L2.39496254,19.995 L2.36230249,19.994474 C0.616545017,19.8937617 0.0416430748,18.4291399 0.00218288526,16.6008743 L-2.50535346e-05,16.4036428 L-2.50535346e-05,10.1030049 C-0.0036854394,9.04219246 0.803145134,8.09039972 1.8311933,8.00606487 L1.97949858,8 L4,8 L4,2 C4,0.878569711 4.89234655,0 6,0 L18.0079443,0 Z M2.46589282,19.9911982 L2.41596254,19.994 L2.44106436,19.9932495 L2.46589282,19.9911982 L2.46589282,19.9911982 Z M18.0040719,2 L6,2 L6,18 L15.4486968,18 C16.0760201,17.9993095 16.6504472,17.749444 17.0950995,17.3695235 C17.6503352,16.8951183 18.0032206,16.1858144 18.0040719,15.3933452 L18.0040719,2 Z M4,10 L2.0512934,10 L2.0512934,16.0512512 C2.0526324,17.2293702 2.14267052,17.8934561 3.37436949,17.8947368 L3.99996254,17.894 L4,10 Z M13,13 L13,15 L8,15 L8,13 L13,13 Z M16,9 L16,11 L8,11 L8,9 L16,9 Z M16,5 L16,7 L8,7 L8,5 L16,5 Z" id="path-1"></path>
    </defs>
    <g id="ASSETIT" stroke="none" stroke-width="1" fill="none" fill-rule="evenodd">
        <g id="ASSETIT---IKONIT" transform="translate(-339.000000, -196.000000)">
            <g id="Ikonit/Opetussunnitelma" transform="translate(339.000000, 196.000000)">
                <g>
                    <mask id="mask-2" fill="white">
                        <use xlink:href="#path-1"></use>
                    </mask>
                    <use id="Mask" fill="#000000" fill-rule="nonzero" xlink:href="#path-1"></use>
                    <g id="Värit/Tumma-harmaa" mask="url(#mask-2)" fill="#575757">
                        <rect id="Rectangle" x="0" y="0" width="20" height="20"></rect>
                    </g>
                </g>
            </g>
        </g>
    </g>
</svg>