<?xml version="1.0" encoding="UTF-8"?>
<svg width="15px" height="15px" viewBox="0 0 15 15" version="1.1" xmlns="http://www.w3.org/2000/svg" xmlns:xlink="http://www.w3.org/1999/xlink">
    <!-- Generator: sketchtool 58 (101010) - https://sketch.com -->
    <title>6CAE65E5-200C-4636-9F25-6CC7412223BE@2x</title>
    <desc>Created with sketchtool.</desc>
    <defs>
        <path d="M7,0 L7,2 L2,2 L2,13 L13,13 L13,8 L15,8 L15,13.2222222 C15,14.2 14.2,15 13.2222222,15 L13.2222222,15 L1.77777778,15 C0.791111111,15 0,14.2 0,13.2222222 L0,13.2222222 L0,1.77777778 C0,0.8 0.791111111,0 1.77777778,0 L1.77777778,0 L7,0 Z M15,-1.15463195e-14 L15,6 L13,6 L12.9993593,3.414 L7.17157288,9.24264069 L5.75735931,7.82842712 L11.5853593,2 L9,2 L9,-1.15463195e-14 L15,-1.15463195e-14 Z" id="path-1"></path>
    </defs>
    <g id="ASSETIT" stroke="none" stroke-width="1" fill="none" fill-rule="evenodd">
        <g id="ASSETIT---IKONIT" transform="translate(-132.000000, -588.000000)">
            <g id="Ikonit/Ulkoinen-linkki" transform="translate(132.000000, 588.000000)">
                <g id="Värit/Tumma-harmaa">
                    <g>
                        <mask id="mask-2" fill="white">
                            <use xlink:href="#path-1"></use>
                        </mask>
                        <use id="Mask" fill="#000000" fill-rule="nonzero" xlink:href="#path-1"></use>
                        <g mask="url(#mask-2)" fill="#575757" id="Rectangle">
                            <rect x="0" y="0" width="15" height="15"></rect>
                        </g>
                    </g>
                </g>
            </g>
        </g>
    </g>
</svg>